<svg viewBox="0 0 72 72" xmlns="http://www.w3.org/2000/svg"><g fill="none" stroke="#000" stroke-miterlimit="10" stroke-width="2"><circle cx="36" cy="36" r="23" stroke-linecap="round" stroke-linejoin="round"/><path d="m19.074 30.4073s-.953 8.5508 6.8608 7.9185c2.6197-.212 7.8164-.6507 7.867-8.3427.0046-.6979-.0078-1.5989-.8108-2.6298-1.0647-1.3669-3.5716-1.9711-9.9446-1.422.0001.0001-3.4462-.099-3.9724 4.476z" stroke-linecap="round" stroke-linejoin="round"/><path d="m19.1447 29.8742-.433-3.3713 3.8329-.5277" stroke-linecap="round" stroke-linejoin="round"/><path d="m52.9325 30.4073s.953 8.5508-6.8608 7.9185c-2.6197-.212-7.8164-.6507-7.867-8.3427-.0046-.6979.0078-1.5989.8108-2.6298 1.0647-1.3669 3.5716-1.9711 9.9446-1.422 0 .0001 3.4463-.099 3.9724 4.476z" stroke-linecap="round" stroke-linejoin="round"/><path d="m31.6962 26.3593s4.1241 2.5339 8.6569 0" stroke-linecap="round" stroke-linejoin="round"/><path d="m33.8022 31.2614s2.1275-3.7509 4.383 0" stroke-linecap="round" stroke-linejoin="round"/><path d="m52.8552 29.8767.4331-3.3713-3.8329-.5277" stroke-linecap="round" stroke-linejoin="round"/><path d="m34.1463 29.9706s1.7954-3.7509 3.6988 0" stroke-linecap="round" stroke-linejoin="round"/><path d="m32.1434 47.3742c-.282 1.7234-.4344 5.4883 3.8566 4.64v-4.3697"/></g><path d="m30 31c0 1.6568-1.3448 3-3 3-1.6553 0-3-1.3433-3-3 0-1.6552 1.3447-3 3-3 1.6552 0 3 1.3448 3 3"/><path d="m48 31c0 1.6568-1.3447 3-3 3s-3-1.3433-3-3c0-1.6552 1.3447-3 3-3s3 1.3448 3 3"/><path d="m39.8566 47.3742c.282 1.7234.4344 5.4883-3.8566 4.64v-4.3697" fill="none" stroke="#000" stroke-miterlimit="10" stroke-width="2"/><path d="m45.8148 44.8055c-6.574 3.5248-14.0454 3.6576-19.6295 0" style="fill:none;stroke:#000;stroke-linecap:round;stroke-linejoin:round;stroke-miterlimit:10;stroke-width:2"/></svg>